<?xml version="1.0" encoding="utf-8"?>
<!-- Generator: Adobe Illustrator 19.1.0, SVG Export Plug-In . SVG Version: 6.00 Build 0)  -->
<svg version="1.1" id="Layer_1" xmlns="http://www.w3.org/2000/svg" xmlns:xlink="http://www.w3.org/1999/xlink" x="0px" y="0px"
	 viewBox="-155 45 288.3 111" style="enable-background:new -155 45 288.3 111;" xml:space="preserve">
<style type="text/css">
	.st0{fill:#FFFFFF;}
	.st1{fill:#981B1E;}
	.st2{fill:url(#SVGID_1_);}
	.st3{fill:#231F20;}
	.st4{fill:#751113;}
</style>
<path class="st0" d="M-22,76.4c-0.6,0-1-0.4-1-1v-9.8c0-0.6,0.4-1,1-1h9.8c0.6,0,1,0.4,1,1v9.8c0,0.6-0.4,1-1,1H-22z"/>
<path class="st1" d="M-12.2,65.6v9.8H-22v-9.8H-12.2 M-12.2,63.5H-22c-1.1,0-2.1,0.9-2.1,2.1v9.8c0,1.1,0.9,2.1,2.1,2.1h9.8
	c1.1,0,2.1-0.9,2.1-2.1v-9.8C-10.1,64.4-11.1,63.5-12.2,63.5z"/>
<path class="st0" d="M-5.9,92.4c-0.6,0-1-0.4-1-1v-9.8c0-0.6,0.4-1,1-1h9.8c0.6,0,1,0.4,1,1v9.8c0,0.6-0.4,1-1,1H-5.9z"/>
<path class="st1" d="M3.9,81.6v9.8h-9.8v-9.8H3.9 M3.9,79.6h-9.8C-7,79.6-8,80.5-8,81.7v9.8c0,1.1,0.9,2.1,2.1,2.1h9.8
	C5,93.6,6,92.7,6,91.5v-9.8C5.9,80.5,5,79.6,3.9,79.6z"/>
<radialGradient id="SVGID_1_" cx="-49.8103" cy="71.7751" r="73.1504" gradientTransform="matrix(1 0 0 -1 0 154)" gradientUnits="userSpaceOnUse">
	<stop  offset="0" style="stop-color:#EC1E24"/>
	<stop  offset="0.186" style="stop-color:#E51E24"/>
	<stop  offset="0.454" style="stop-color:#D21D22"/>
	<stop  offset="0.77" style="stop-color:#B31C20"/>
	<stop  offset="1" style="stop-color:#981B1E"/>
</radialGradient>
<path class="st2" d="M-26.3,93.6L-26.3,93.6v0.2v0.1V94v0.1v0.1v0.1v0.1v0.1v0.1v0.1c0,0,0,0.1,0.1,0.1c0,0,0,0.1,0.1,0.1
	c0,0,0,0.1,0.1,0.1s0,0.1,0.1,0.1c0,0,0,0.1,0.1,0.1c0,0,0,0,0.1,0.1s0,0,0.1,0.1c0,0,0.1,0,0.1,0.1s0.1,0,0.1,0.1
	c0,0,0.1,0,0.1,0.1c0,0,0.1,0,0.1,0.1s0.1,0,0.1,0h0.1h0.1h0.1h0.1h0.1h0.1h0.1h0.1h0.1h1.4h1.4h1.4h1.4h1.4h1.4h1.4h1.4h1.4h1.4
	h1.4h1.4H-6h1.4h1.4h1.4h1.4H1h1.4h1.4h1.4h1.4H8h1.4h1.4h1.4h1.4H15h1.4h1.4h1.4h1.4h0.1h0.1h0.1H21h0.1h0.1h0.1h0.1h0.1h0.1h0.1
	c0,0,0.1,0,0.1,0.1s0.1,0,0.1,0.1c0,0,0.1,0,0.1,0.1c0,0,0.1,0,0.1,0.1c0,0,0.1,0,0.1,0.1c0,0,0,0,0.1,0.1s0,0,0.1,0.1
	c0,0,0,0.1,0.1,0.1c0,0,0,0.1,0.1,0.1c0,0,0,0.1,0.1,0.1c0,0,0,0.1,0.1,0.1s0,0.1,0,0.1v0.1v0.1v0.1v0.1v0.1v0.1v0.1v0.1v0.1v1v1v1
	v1v1v1v1v1v1v1v1v1v1v1v1v1v1v1v1v1v1v1v1v1v1v1v1v1v1v1v1v1v0.1v0.1v0.1v0.1v0.1v0.1v0.1v0.1v0.1v0.1v0.1c0,0,0,0.1-0.1,0.1
	c0,0,0,0.1-0.1,0.1c0,0,0,0.1-0.1,0.1s0,0.1-0.1,0.1s0,0.1-0.1,0.1s0,0-0.1,0.1c0,0,0,0-0.1,0.1c0,0-0.1,0-0.1,0.1s-0.1,0-0.1,0.1
	s-0.1,0-0.1,0.1s-0.1,0-0.1,0.1h-0.1h-0.1h-0.1h-0.1h-0.1h-0.1H21h-0.1h-0.1h-0.1h-0.2h-0.2h-0.2h-0.2h-0.2h-0.2h-0.2h-1.1H18h-0.2
	h-0.2h-0.2h-0.2H17h-0.2h-0.2h-0.2h-0.2H16h-0.2h-0.2h-0.2h-0.2H15h-0.2h-0.2h-0.2h-0.2H14h-0.2h-0.2h-0.2h-0.1h-0.1h-0.1H13h-0.1
	h-0.1h-0.1h-0.1h-0.1h-0.1h-0.1c0,0-0.1,0-0.1,0.1c0,0-0.1,0-0.1,0.1c0,0-0.1,0-0.1,0.1c0,0-0.1,0-0.1,0.1s-0.1,0-0.1,0.1
	c0,0,0,0-0.1,0.1c0,0,0,0-0.1,0.1c0,0,0,0.1-0.1,0.1c0,0,0,0.1-0.1,0.1c0,0,0,0.1-0.1,0.1c0,0,0,0.1-0.1,0.1s0,0.1,0,0.1v0.1v0.1
	v0.1v0.1v0.1v0.1v0.1v0.1v0.1v0.2v0.2v0.2v0.2v0.2v0.2v0.2v0.2v0.2v0.2v0.2v0.2v0.2v0.2v0.2v0.2v0.2v0.2v0.2v0.2v0.2v0.2v0.2v0.2
	v0.2v0.2v0.2v0.2v0.2v0.2v0.2v0.2v0.1v0.1v0.1v0.1v0.1v0.1v0.1v0.1v0.1v0.1v0.1c0,0,0,0.1,0.1,0.1s0,0.1,0.1,0.1c0,0,0,0.1,0.1,0.1
	s0,0.1,0.1,0.1s0,0.1,0.1,0.1s0,0,0.1,0.1s0,0,0.1,0.1c0,0,0.1,0,0.1,0.1s0.1,0,0.1,0.1s0.1,0,0.1,0.1s0.1,0,0.1,0.1s0.1,0,0.1,0
	h0.1h0.1h0.1h0.1h0.1H13h0.1h0.1h0.1h0.2h0.2h0.2h0.2h0.2h0.2h0.2h0.2h0.2h0.2h0.2h0.2h0.2h0.2h0.2h0.2h0.2h0.2h0.2h0.2h0.2h0.2h0.2
	h0.2h0.2h0.2h0.2h0.2h0.2h0.2h0.2h0.2h0.1h0.1H20h0.1h0.1h0.1h0.1h0.1h0.1h0.1h0.1c0,0,0.1,0,0.1,0.1c0,0,0.1,0,0.1,0.1
	c0,0,0.1,0,0.1,0.1c0,0,0.1,0,0.1,0.1c0,0,0.1,0,0.1,0.1c0,0,0,0,0.1,0.1c0,0,0,0,0.1,0.1c0,0,0,0.1,0.1,0.1c0,0,0,0.1,0.1,0.1
	c0,0,0,0.1,0.1,0.1c0,0,0,0.1,0.1,0.1s0,0.1,0,0.1v0.1v0.1v0.1v0.1v0.1v0.1v0.1v0.1v0.1v0.2v0.2v0.2v0.2v0.2v0.2v0.2v0.2v0.2v0.2
	v0.2v0.2v0.2v0.2v0.2v0.2v0.2v0.2v0.2v0.2v0.2v0.2v0.2v0.2v0.2v0.2v0.2v0.2v0.2v0.2v0.2v0.2v0.1v0.1v0.1v0.1v0.1v0.1v0.1v0.1v0.1
	v0.1v0.1c0,0,0,0.1-0.1,0.1c0,0,0,0.1-0.1,0.1c0,0,0,0.1-0.1,0.1s0,0.1-0.1,0.1s0,0.1-0.1,0.1s0,0-0.1,0.1c0,0,0,0-0.1,0.1
	c0,0-0.1,0-0.1,0.1s-0.1,0-0.1,0.1s-0.1,0-0.1,0.1s-0.1,0-0.1,0.1h-0.1h-0.1h-0.1h-0.1h-0.1h-0.1h-0.1H20h-0.1h-0.1h-3.2h-3.2h-3.2
	H7H3.8H0.6h-3.2h-3.2H-9h-3.2h-3.2h-3.2h-3.2H-25h-3.2h-3.2h-3.2h-3.2H-41h-3.2h-3.2h-3.2h-3.2H-57h-3.2h-3.2h-3.2h-3.2H-73h-3.2
	h-3.2h-3.2h-0.1h-0.1h-0.1H-83h-0.1h-0.1h-0.1h-0.1h-0.1h-0.1h-0.1c0,0-0.1,0-0.1-0.1c0,0-0.1,0-0.1-0.1c0,0-0.1,0-0.1-0.1
	c0,0-0.1,0-0.1-0.1c0,0-0.1,0-0.1-0.1s0,0-0.1-0.1c0,0,0,0-0.1-0.1c0,0,0-0.1-0.1-0.1c0,0,0-0.1-0.1-0.1c0,0,0-0.1-0.1-0.1
	s0-0.1-0.1-0.1v-0.1v-0.1v-0.1v-0.1V152v-0.1v-0.1v-0.1v-0.1v-0.1V149v-2.5v-1.9l0,0c0-1-0.1-1.9,1.9-1.9h3.3h2.5
	c2.6,0,2.7,0,2.7-2.7v-5.4c0-2.7-0.1-2.7-2.7-2.7l-5.1-0.1c-2.7,0-2.7-1.2-2.7-2.7v-1.3v-4v-4v-4v-4v-4v-4v-4v-3.2v-3.2v-1.6v-3.2
	v-3.2v-3.2v-3.2v-3.2v-3.2v-3.2v-3.2v-3.4v-3.2v-3.2v-3.2v-3.2v-0.1v-0.1v-0.1v-0.1v-0.1v-0.1v-0.1v-0.1V49v-0.1v-0.1
	c0,0,0-0.1,0.1-0.1c0,0,0-0.1,0.1-0.1c0,0,0-0.1,0.1-0.1c0,0,0-0.1,0.1-0.1s0-0.1,0.1-0.1s0,0,0.1-0.1c0,0,0,0,0.1-0.1
	c0,0,0.1,0,0.1-0.1c0,0,0.1,0,0.1-0.1s0.1,0,0.1-0.1s0.1,0,0.1-0.1h0.1h0.1h0.1h0.1h0.1h0.1h0.1h0.1h0.1h0.1h1.7h1.7h1.7h1.7h1.7
	h1.7h1.7h1.7h1.7h1.7h1.7h1.7h1.7h1.7h1.7h1.7h1.7h1.7h1.7h1.7h1.7h1.7h1.7h1.7h1.7h1.7h1.7h1.7h1.7h1.7h1.7h1.7h0.1h0.1h0.1h0.1
	h0.1h0.1h0.1h0.1h0.1h0.1h0.1c0,0,0.1,0,0.1,0.1s0.1,0,0.1,0.1s0.1,0,0.1,0.1c0,0,0.1,0,0.1,0.1s0.1,0,0.1,0.1s0,0,0.1,0.1
	s0,0,0.1,0.1s0,0.1,0.1,0.1c0,0,0,0.1,0.1,0.1c0,0,0,0.1,0.1,0.1s0,0.1,0.1,0.1s0,0.1,0,0.1V49v0.1v0.1v0.1v0.1v0.1v0.1v0.1v0.1v1.4
	v1.4V54v1.4v1.3v1.4v1.4v1.4v1.4v1.4v1.4v1.4v1.4v1.4v1.4v1.4v1.4v1.2v1.4v1.4v1.4v1.4v1.4v1.4v1.4v1.2v1.4v1.4v1.4v1.4v1.4v1.4l0,0
	l0,0l0,0l0,0l0,0l0,0l0,0l0,0l0,0l0,0l0,0C-26.2,94.1-26.2,93.7-26.3,93.6C-26.2,93.7-26.2,93.7-26.3,93.6
	C-26.2,93.7-26.2,93.7-26.3,93.6C-26.2,93.7-26.2,93.7-26.3,93.6C-26.2,93.7-26.2,93.7-26.3,93.6C-26.2,93.7-26.2,93.7-26.3,93.6
	C-26.2,93.7-26.2,93.7-26.3,93.6C-26.3,93.7-26.3,93.7-26.3,93.6C-26.3,93.7-26.3,93.7-26.3,93.6C-26.3,93.7-26.3,93.7-26.3,93.6
	C-26.3,93.7-26.3,93.7-26.3,93.6C-26.3,93.7-26.3,93.7-26.3,93.6C-26.3,93.7-26.3,93.7-26.3,93.6C-26.3,93.7-26.3,93.7-26.3,93.6
	C-26.3,93.7-26.3,93.7-26.3,93.6C-26.3,93.7-26.3,93.7-26.3,93.6C-26.3,93.7-26.3,93.7-26.3,93.6C-26.3,93.7-26.3,93.7-26.3,93.6
	C-26.3,93.7-26.3,93.7-26.3,93.6C-26.3,93.7-26.3,93.6-26.3,93.6L-26.3,93.6z M-10.1,81.6c0-1.1-0.9-2.1-2.1-2.1H-22
	c-1.1,0-2.1,0.9-2.1,2.1v9.8c0,1.1,0.9,2.1,2.1,2.1h9.8c1.1,0,2.1-0.9,2.1-2.1V81.6z M-10.1,49.5c0-1.1-0.9-2.1-2.1-2.1H-22
	c-1.1,0-2.1,0.9-2.1,2.1v9.8c0,1.1,0.9,2.1,2.1,2.1h9.8c1.1,0,2.1-0.9,2.1-2.1V49.5z M5.9,65.6c0-1.1-0.9-2.1-2.1-2.1H-6
	c-1.1,0-2.1,0.9-2.1,2.1v9.8c0,1.1,0.9,2.1,2.1,2.1h9.8c1.1,0,2.1-0.9,2.1-2.1V65.6z M22,81.6c0-1.1-0.9-2.1-2.1-2.1h-9.7
	c-1.1,0-2.1,0.9-2.1,2.1v9.8c0,1.1,0.9,2.1,2.1,2.1H20c1.1,0,2.1-0.9,2.1-2.1L22,81.6L22,81.6z"/>
<path class="st1" d="M90.3,142.8c0,0.6-0.4,1-1,1H86c-0.6,0-1-0.4-1-1v-3.3c0-0.5,0.4-1,1-1h3.3c0.6,0,1,0.5,1,1
	C90.3,139.5,90.3,142.8,90.3,142.8z"/>
<path class="st3" d="M45.1,143c0,6-3.1,9.4-10.1,9.4c-2.1,0-3.9-0.3-7-1.3l0.4-3.4c2.8,1.2,4.4,1.8,7.1,1.8c3.8,0,6.1-2.6,6.1-6.8
	v-2h-0.1c-1.5,2.1-4.1,3.1-6.6,3.1c-5.7,0-8.4-4.6-8.4-9.7s2.9-10.4,8.8-10.4c3.5,0,5.4,1.2,6.5,3.4h0.1v-2.9h3.4V143H45.1z
	 M41.5,134.3c0-4.1-1.9-7.6-5.8-7.6c-3.7,0-5.5,4-5.5,7.3c0,3.7,2.1,6.9,5.5,6.9S41.5,137.9,41.5,134.3z M57.3,123.7
	c6,0,10,4.3,10,10.3c0,5.7-4.1,10.3-10,10.3c-6,0-10-4.6-10-10.3C47.2,128,51.2,123.7,57.3,123.7z M57.3,141.4
	c4.2,0,6.2-3.8,6.2-7.3c0-3.7-2.3-7.3-6.2-7.3s-6.2,3.6-6.2,7.3C51.1,137.5,52.9,141.4,57.3,141.4z M79.8,143.9h-4.3l-7-19.7h4
	l5.4,16.1H78l5.5-16.1h3.6L79.8,143.9z M95.6,125.5c1.9-1,4-1.9,6.5-1.9c5.7,0,7.9,2.8,7.9,8.1v8.1c0,2.3,0.1,3.3,0.2,3.8h-3.4V141
	h-0.1c-0.8,1.2-2.8,3-6.1,3c-4.2,0-7.2-1.9-7.2-6.2c0-4.9,5.4-6.5,9.2-6.5c1.4,0,2.5,0,3.8,0.1c0-3.4-1.2-5.2-4.8-5.2
	c-2.1,0-4.2,0.7-5.7,2L95.6,125.5L95.6,125.5z M106.4,134.5l-2.3-0.1c-2,0-6.8,0.3-6.8,3.8c0,2.1,2,3.2,3.7,3.2
	c3.6,0,5.5-2.3,5.5-5.2v-1.8h-0.1V134.5z M131.5,143.9H128v-3.1h-0.1c-1,2.3-3.7,3.6-6.4,3.6c-5,0-7.3-3.2-7.3-8.4v-11.7h3.6v10.2
	c0,4.6,1,6.8,4.1,7c4.1,0,6-3.3,6-8.1v-9.1h3.6V143.9z"/>
<path class="st4" d="M-47.5,118.4c1.8-0.8,4.2-2,8.2-2c8,0,9.9,3.9,9.9,10.4v11.3c0,1.9,0.2,3.6,0.3,4.5h-5.7
	c-0.3-1-0.3-2.3-0.3-3.5h-0.1c-1.5,2.2-3.5,3.9-7.2,3.9c-4,0-7.7-2.8-7.7-7.6c0-7,5.8-8.9,13.6-8.9h1.2v-0.9c0-2.6-1.2-4.9-4.8-4.9
	c-3.1,0-5.9,1.5-7.1,2.5L-47.5,118.4z M-35.2,130.2h-0.5c-5.4,0-8.6,1.1-8.6,4.8c0,2.4,1.5,4,4,4c3.7,0,5-2.8,5-7.4
	C-35.2,131.6-35.2,130.2-35.2,130.2z M-10.2,118.4c1.8-0.8,4.2-2,8.2-2c8,0,9.9,3.9,9.9,10.4v11.3c0,1.9,0.2,3.6,0.3,4.5H2.5
	c-0.3-1-0.3-2.3-0.3-3.5H2.1c-1.5,2.2-3.5,3.9-7.2,3.9c-4,0-7.7-2.8-7.7-7.6c0-7,5.8-8.9,13.6-8.9H2v-0.9c0-2.6-1.2-4.9-4.8-4.9
	c-3.1,0-5.9,1.5-7.1,2.5C-9.9,123.3-10.2,118.4-10.2,118.4z M2.1,130.2H1.6c-5.4,0-8.6,1.1-8.6,4.8c0,2.4,1.5,4,4,4
	c3.7,0,5-2.8,5-7.4L2.1,130.2L2.1,130.2z M-13.5,121.5V117h-5.2v-7.3l-6.2,1.9v5.4H-29v4.5h4.1v14.2c0,5.5,2.6,7.5,7.2,7.5
	c1.9,0,3.2-0.4,4.2-0.8V138c-0.4,0.2-1.2,0.5-2.4,0.5c-1.9,0-2.8-0.8-2.8-3.6v-13.4C-18.7,121.5-13.5,121.5-13.5,121.5z M-51.4,100
	v38.4c0,1.9,0,3.5,0.2,4.4h-5.9c-0.1-0.7-0.2-2.3-0.2-4h-0.1c-1,2.2-2.9,4.4-6.9,4.4c-6.5,0-9.1-6.2-9.1-13.3c0-8.4,3.4-13.4,9-13.4
	c3.7,0,5.8,2.2,6.7,4.1h0.1v-18.8C-57.6,101.9-51.4,100-51.4,100z M-62.6,138.6c3.7,0,4.9-4,4.9-8.9c0-5-1.4-8.8-4.8-8.8
	c-3.5,0-4.6,3.4-4.6,8.6C-67.2,135.6-66.3,138.6-62.6,138.6z"/>
<path class="st0" d="M-47.5,119.4c1.8-0.8,4.2-2,8.2-2c8,0,9.9,3.9,9.9,10.4v11.3c0,1.9,0.2,3.6,0.3,4.5h-5.7
	c-0.3-1-0.3-2.3-0.3-3.5h-0.1c-1.5,2.2-3.5,3.9-7.2,3.9c-4,0-7.7-2.8-7.7-7.6c0-7,5.8-8.9,13.6-8.9h1.2v-0.9c0-2.6-1.2-4.9-4.8-4.9
	c-3.1,0-5.9,1.5-7.1,2.5L-47.5,119.4z M-35.2,131.2h-0.5c-5.4,0-8.6,1.1-8.6,4.8c0,2.4,1.5,4,4,4c3.7,0,5-2.8,5-7.4
	C-35.2,132.6-35.2,131.2-35.2,131.2z M-10.2,119.4c1.8-0.8,4.2-2,8.2-2c8,0,9.9,3.9,9.9,10.4v11.3c0,1.9,0.2,3.6,0.3,4.5H2.5
	c-0.3-1-0.3-2.3-0.3-3.5H2.1c-1.5,2.2-3.5,3.9-7.2,3.9c-4,0-7.7-2.8-7.7-7.6c0-7,5.8-8.9,13.6-8.9H2v-0.9c0-2.6-1.2-4.9-4.8-4.9
	c-3.1,0-5.9,1.5-7.1,2.5C-9.9,124.3-10.2,119.4-10.2,119.4z M2.1,131.2H1.6c-5.4,0-8.6,1.1-8.6,4.8c0,2.4,1.5,4,4,4
	c3.7,0,5-2.8,5-7.4L2.1,131.2L2.1,131.2z M-13.5,122.5V118h-5.2v-7.3l-6.2,1.9v5.4H-29v4.5h4.1v14.2c0,5.5,2.6,7.5,7.2,7.5
	c1.9,0,3.2-0.4,4.2-0.8V139c-0.4,0.2-1.2,0.5-2.4,0.5c-1.9,0-2.8-0.8-2.8-3.6v-13.4C-18.7,122.5-13.5,122.5-13.5,122.5z M-51.4,101
	v38.4c0,1.9,0,3.5,0.2,4.4h-5.9c-0.1-0.7-0.2-2.3-0.2-4h-0.1c-1,2.2-2.9,4.4-6.9,4.4c-6.5,0-9.1-6.2-9.1-13.3c0-8.4,3.4-13.4,9-13.4
	c3.7,0,5.8,2.2,6.7,4.1h0.1V103L-51.4,101z M-62.6,139.6c3.7,0,4.9-4,4.9-8.9c0-5-1.4-8.8-4.8-8.8c-3.5,0-4.6,3.4-4.6,8.6
	C-67.2,136.7-66.3,139.6-62.6,139.6z"/>
<g>
	<path class="st3" d="M-153.1,115.1h3.5v12.2h0.1c1.2-2.2,3.5-3.5,6.6-3.5c4.9,0,8.2,4,8.2,9.9c0,6.9-4.4,10.4-8.7,10.4
		c-2.8,0-5.1-1.1-6.5-3.6h-0.1l-0.2,3.2h-3c0.1-1.3,0.2-3.3,0.2-5v-23.6H-153.1z M-149.6,135.8c0,0.4,0,0.9,0.2,1.3
		c0.6,2.4,2.7,4.1,5.3,4.1c3.7,0,5.9-3,5.9-7.5c0-3.9-2-7.2-5.8-7.2c-2.4,0-4.6,1.7-5.3,4.3c-0.1,0.4-0.2,0.9-0.2,1.5L-149.6,135.8
		L-149.6,135.8z"/>
	<path class="st3" d="M-132.3,115.1h3.5v28.5h-3.5V115.1z"/>
	<path class="st3" d="M-107.3,133.7c0,7.2-5,10.3-9.7,10.3c-5.2,0-9.3-3.9-9.3-10c0-6.5,4.3-10.3,9.6-10.3
		C-111,123.8-107.3,127.8-107.3,133.7z M-122.6,133.9c0,4.3,2.4,7.5,5.9,7.5c3.4,0,5.9-3.2,5.9-7.5c0-3.3-1.6-7.4-5.8-7.4
		C-120.8,126.4-122.6,130.3-122.6,133.9z"/>
	<path class="st3" d="M-88.2,140.8c0,4.5-0.9,7.2-2.8,8.9c-1.9,1.7-4.7,2.3-7.1,2.3c-2.3,0-4.9-0.6-6.5-1.6l0.9-2.7
		c1.3,0.8,3.3,1.6,5.7,1.6c3.6,0,6.3-1.9,6.3-6.8v-2.1h-0.1c-1,1.8-3.2,3.3-6.2,3.3c-4.8,0-8.3-4.1-8.3-9.5c0-6.6,4.3-10.3,8.8-10.3
		c3.4,0,5.2,1.7,6.1,3.3h0.1l0.1-2.9h3.1c-0.1,1.4-0.2,3-0.2,5.3L-88.2,140.8L-88.2,140.8z M-91.7,131.9c0-0.6,0-1.1-0.2-1.6
		c-0.6-2.1-2.3-3.8-4.9-3.8c-3.4,0-5.8,2.8-5.8,7.3c0,3.8,2,7,5.7,7c2.2,0,4.2-1.4,4.9-3.6c0.2-0.6,0.3-1.3,0.3-1.9V131.9z"/>
</g>
</svg>
